<svg xmlns="http://www.w3.org/2000/svg" viewBox="0 0 83.96 52.54"><defs><style>.cls-1{isolation:isolate;}.cls-2{fill:#084b69;}.cls-3,.cls-4{fill:#0b7696;}.cls-4{opacity:0.35;mix-blend-mode:multiply;}</style></defs><title>balance</title><g class="cls-1"><g id="Calque_2" data-name="Calque 2"><g id="Layer_1" data-name="Layer 1"><path class="cls-2" d="M42,0c-6.28.92,0,9.34,0,9.34S48.26.92,42,0Z"/><polygon class="cls-3" points="14.03 39.83 3.52 39.83 13.15 9.21 14.03 9.48 4.77 38.91 13.16 38.91 14.9 8.65 17.1 9.63 23.74 39.27 22.84 39.47 16.31 10.28 15.75 10.03 14.03 39.83"/><path class="cls-2" d="M0,38c.05,6,6.13,10.87,13.63,10.87S27.2,44,27.26,38Z"/><polygon class="cls-3" points="69.93 39.83 80.44 39.83 70.81 9.21 69.93 9.48 79.19 38.91 70.8 38.91 69.05 8.65 66.86 9.63 60.22 39.27 61.12 39.47 67.65 10.28 68.21 10.03 69.93 39.83"/><path class="cls-2" d="M84,38c0,6-6.13,10.87-13.63,10.87S56.75,44,56.7,38Z"/><path class="cls-2" d="M47.17,10.72,42,8.65l-5.19,2.07s5,14.25,1.37,37.07L42,48.86l3.82-1.07C42.13,25,47.17,10.72,47.17,10.72Z"/><path class="cls-2" d="M56.12,52.54C54.36,48.83,48.7,46.11,42,46.11S29.6,48.83,27.84,52.54Z"/><path class="cls-3" d="M47.17,46.11c0,1.77-2.32,3.21-5.19,3.21s-5.19-1.44-5.19-3.21,2.32-3.22,5.19-3.22S47.17,44.33,47.17,46.11Z"/><path class="cls-4" d="M42.39,8.82,42,9.21l-.41-.39-4.78,1.9a41.29,41.29,0,0,1,1.34,5.4c.69.21,3,.53,3.85-4.36.82,4.89,3.16,4.57,3.85,4.36a41.29,41.29,0,0,1,1.34-5.4Z"/><path class="cls-3" d="M42,6.13S35.61-.77,29.37,2,15.63,11.49,7.82,6.13c0,0-.31,12.71,17.08,5.66,0,0,5.58-3.67,12.78.92C37.68,12.71,41.52,14.55,42,6.13Z"/><path class="cls-3" d="M42,6.13S48.35-.77,54.59,2s13.74,9.5,21.55,4.14c0,0,.3,12.71-17.08,5.66,0,0-5.58-3.67-12.79.92C46.27,12.71,42.44,14.55,42,6.13Z"/><path class="cls-2" d="M44.88,8.65A2.9,2.9,0,1,1,42,5.75,2.9,2.9,0,0,1,44.88,8.65Z"/></g></g></g></svg>