<svg xmlns="http://www.w3.org/2000/svg" viewBox="0 0 59.96 68.32"><defs><style>.cls-1{isolation:isolate;}.cls-2{fill:#008697;}.cls-3{fill:#183940;}.cls-4{fill:#0099ab;}.cls-5{fill:#0bb2bf;}.cls-6{fill:#00afba;opacity:0.35;mix-blend-mode:multiply;}.cls-7{fill:#24434a;}.cls-8{fill:#b1bfc0;}.cls-9{fill:#48696b;}</style></defs><title>belier</title><g class="cls-1"><g id="Calque_2" data-name="Calque 2"><g id="Layer_1" data-name="Layer 1"><path class="cls-2" d="M22,36.31c1.56.82,1.92,3,1.32,4.65a15.39,15.39,0,0,1-3,4.3c-4.61,5.52-7.44,10.05-6,20.1l-3.85.25a67.62,67.62,0,0,1,.94-16.93c.87-4.7,2.62-9.79,6.84-12A4.19,4.19,0,0,1,22,36.31Z"/><path class="cls-3" d="M10.9,65v3.36h5.56s-.45-3.94-2-4.17A7.16,7.16,0,0,0,10.9,65Z"/><path class="cls-2" d="M37.48,42.81c1,7.55.83,11.73,1.65,22.79l3.38-.23c-.61-15.09.34-20.12,1.69-31-1.78-.25-5.53,1.31-6,3.06A13.91,13.91,0,0,0,37.48,42.81Z"/><path class="cls-3" d="M39.13,65v3.36h5.55s-.44-3.94-2-4.17A7.16,7.16,0,0,0,39.13,65Z"/><path class="cls-4" d="M15.55,45.24a5.41,5.41,0,0,1-.76-3,11.25,11.25,0,0,1,5.07-9.45c4.39-2.82,10.21-2.25,14.88-4.58,2.08-1,3.84-2.62,5.81-3.85s4.34-2.13,6.6-1.6A21.55,21.55,0,0,1,40.37,44a21.56,21.56,0,0,1-22,3.3A6.21,6.21,0,0,1,15.55,45.24Z"/><path class="cls-2" d="M3.44,39a22.7,22.7,0,0,0,4.38-6.73,4.67,4.67,0,0,0-5-1.05,4.55,4.55,0,0,0-1,7.9A1.19,1.19,0,0,0,3.44,39Z"/><path class="cls-5" d="M11.28,65.55a23.65,23.65,0,0,1,2.66-16.29c.19-.32,5.76-.11,5.5-7.5,4.13.56,8.92-.73,12.91-1.93-2.45,4.33-.59,5,1.53,9.91s3,7.62,2.4,15.95l3.07-.09c.86-9.66-2.67-22.71,2.55-27,4.93-4.11,4.52-14.7,4.52-14.7C44,21.6,39.9,14.1,36.66,13.4A17.08,17.08,0,0,1,20.87,27.68c-3.62.13-7.34-.92-10.79.13a9.44,9.44,0,0,0-6.5,8.47C3.46,39.45,5,42.42,6,45.41c2.29,6.51,1.87,8.3,1.06,20.36C8.66,65.7,9.69,65.62,11.28,65.55Z"/><path class="cls-6" d="M46.42,23.85c-2-1.81-5-7-7.76-9.32a12.84,12.84,0,0,0-1.75,5.2,6.45,6.45,0,0,0,2.57,5.87c1.63,1.07,3.71,1.07,5.65,1.37.39.06.79.14,1.18.22A28.48,28.48,0,0,0,46.42,23.85Z"/><path class="cls-7" d="M6.75,65v3.36H12.3s-.44-3.94-2-4.17A7.16,7.16,0,0,0,6.75,65Z"/><path class="cls-7" d="M35.53,65v3.36h5.56s-.45-3.94-2-4.17A7.16,7.16,0,0,0,35.53,65Z"/><path class="cls-5" d="M47.36,24.72c1.87.29,3.68.89,5.56,1.1a7.41,7.41,0,0,0,5.41-1.16c1.49-1.16,2.18-3.46,1.11-5S56.36,17.86,55,16.71s-2-3.23-2.55-5.08S51.05,7.8,49.3,7a4.86,4.86,0,0,0-4.63.59,11.36,11.36,0,0,0-3.18,3.67,14.12,14.12,0,0,0-2.35,6.23,6.45,6.45,0,0,0,2.57,5.87C43.34,24.42,45.42,24.42,47.36,24.72Z"/><path class="cls-7" d="M52.64,15.59A1.55,1.55,0,1,1,51.09,14,1.56,1.56,0,0,1,52.64,15.59Z"/><path class="cls-7" d="M56.82,25.47c.23-.23.45-.47.66-.71a4,4,0,0,1-4.33-2.55c-.18-.37-.94-.12-.77.35a4.83,4.83,0,0,0,4.09,3.1Z"/><path class="cls-8" d="M29.27,2.11a10.43,10.43,0,0,0-2.29,14,10.43,10.43,0,0,0,14,2.38c2-1.37,3.4-4.14,2-6.08a16,16,0,0,0,6.84-1.49,1.44,1.44,0,0,0,.85-1.42A8.63,8.63,0,0,0,48,4.27,14.91,14.91,0,0,0,42,.91C37.8-.43,32.86-.49,29.27,2.11Z"/><path class="cls-9" d="M35.57,13.8a4.45,4.45,0,0,1-3.66-1.63,4.1,4.1,0,0,1,.19-4.75,6.58,6.58,0,0,1,4.14-2.37c4.52-.86,9.65,2.42,11.24,6.72l-.81.21C45.21,8,40.52,5.09,36.4,5.87a5.75,5.75,0,0,0-3.62,2,3.28,3.28,0,0,0-.2,3.77A3.73,3.73,0,0,0,35.77,13a4.19,4.19,0,0,0,1.55-.33A2.09,2.09,0,0,1,36.09,12a2,2,0,0,1-.61-1.82A2.11,2.11,0,0,1,38.68,9a2.07,2.07,0,0,1,.8,1.44,2.71,2.71,0,0,1-.54,2,4.22,4.22,0,0,1-3.14,1.37Zm2.71-1.9a1.87,1.87,0,0,0,.37-1.36,1.25,1.25,0,0,0-.47-.88,1.16,1.16,0,0,0-1.11-.1,1.18,1.18,0,0,0-.77.8,1.1,1.1,0,0,0,.38,1.05C37.63,12.22,38.15,12.06,38.28,11.9Z"/></g></g></g></svg>