<svg xmlns="http://www.w3.org/2000/svg" viewBox="0 0 52.39 68.56"><defs><style>.cls-1{fill:#d77b00;}.cls-2{fill:#f58f00;}.cls-3{fill:#ffbb01;}.cls-4{fill:#24434a;}</style></defs><title>cancer</title><g id="Calque_2" data-name="Calque 2"><g id="Layer_1" data-name="Layer 1"><path class="cls-1" d="M28.49,22.4S32.1,2.85,39.56,0c0,0-7.72,10.59-9.56,24Z"/><path class="cls-1" d="M24.11,22.4S20.5,2.85,13,0c0,0,7.73,10.59,9.57,24Z"/><path class="cls-1" d="M31.51,41.72s10.9-7.23,12.93-6.93,7.44,3.67,6.62,5.4c0,0-4.17-3.16-6.31-2.95s-11.71,5-13.24,7.33S31.51,41.72,31.51,41.72Z"/><path class="cls-1" d="M29.58,45.18S42.2,40.42,44.34,41s5.2,4.82,4,6.86c0,0-2.34-4.38-4.37-4.79S30.4,47.22,30.4,47.22Z"/><path class="cls-1" d="M30.4,47.83s8.14-3.06,10-2.24S44,52.72,42.1,54.65c0,0-1.46-6.52-2.36-6.82s-8.91,2.22-8.91,2.22Z"/><path class="cls-1" d="M20.87,41.72S10,34.49,7.94,34.79s-7.43,3.67-6.62,5.4c0,0,4.18-3.16,6.32-2.95s11.71,5,13.23,7.33S20.87,41.72,20.87,41.72Z"/><path class="cls-1" d="M22.81,45.18S10.18,40.42,8,41s-5.19,4.82-4,6.86c0,0,2.35-4.38,4.38-4.79S22,47.22,22,47.22Z"/><path class="cls-1" d="M22,47.83s-8.14-3.06-10-2.24-3.67,7.13-1.74,9.06c0,0,1.47-6.52,2.37-6.82s8.9,2.22,8.9,2.22Z"/><path class="cls-2" d="M26.19,18.26s-13.3,10.59-3.93,44.12a11.62,11.62,0,0,0,3.93.41,11.65,11.65,0,0,0,3.94-.41C39.5,28.85,26.19,18.26,26.19,18.26Z"/><path class="cls-3" d="M26.19,42.84a9.42,9.42,0,0,0-7,3.29,88.9,88.9,0,0,0,3.09,16.25,11.62,11.62,0,0,0,3.93.41,11.65,11.65,0,0,0,3.94-.41,89.76,89.76,0,0,0,3.09-16.25A9.45,9.45,0,0,0,26.19,42.84Z"/><path class="cls-1" d="M42.2,25.32s-4.78-7.12-1-18.53a12.09,12.09,0,0,1,3.25,5.67S47,7.2,42.09,1.8c0,0,10.29,2,10.3,14.67C52.39,24.48,42.2,25.32,42.2,25.32Z"/><path class="cls-2" d="M41.66,27a8.19,8.19,0,0,1,1.59-3.14,2.48,2.48,0,0,1,3.2-.44c.92.78.8,2.24.36,3.36a8.58,8.58,0,0,1-7.48,5.3A28.47,28.47,0,0,0,41.66,27Z"/><path class="cls-2" d="M39.69,35.27a15.8,15.8,0,0,1-6.91,3,2.1,2.1,0,0,1-1.29,0,.73.73,0,0,1-.33-1.07,6.93,6.93,0,0,0,5.3-3.75c.38-.76.61-1.6,1-2.32a2.59,2.59,0,0,1,2-1.39,2.29,2.29,0,0,1,2.06,2.54A4.7,4.7,0,0,1,39.69,35.27Z"/><path class="cls-1" d="M10.18,25.32S15,18.2,11.2,6.79a12.16,12.16,0,0,0-3.26,5.67S5.42,7.2,10.29,1.8c0,0-10.29,2-10.29,14.67C0,24.48,10.18,25.32,10.18,25.32Z"/><path class="cls-2" d="M10.73,27a8.07,8.07,0,0,0-1.6-3.14,2.48,2.48,0,0,0-3.2-.44c-.91.78-.8,2.24-.35,3.36a8.57,8.57,0,0,0,7.48,5.3A27.78,27.78,0,0,1,10.73,27Z"/><path class="cls-2" d="M12.69,35.27a15.89,15.89,0,0,0,6.92,3,2.07,2.07,0,0,0,1.28,0,.73.73,0,0,0,.34-1.07,6.91,6.91,0,0,1-5.3-3.75c-.38-.76-.61-1.6-1-2.32a2.6,2.6,0,0,0-2-1.39,2.29,2.29,0,0,0-2,2.54A4.72,4.72,0,0,0,12.69,35.27Z"/><path class="cls-1" d="M28,64.18c0,2.42-.8,4.38-1.79,4.38s-1.78-2-1.78-4.38.8-4.37,1.78-4.37S28,61.77,28,64.18Z"/><path class="cls-1" d="M31.22,63.49c.94,2.23,1,4.34.07,4.73s-2.41-1.11-3.35-3.34-1-4.34-.07-4.73S30.28,61.26,31.22,63.49Z"/><path class="cls-1" d="M21.17,63.49c-.94,2.23-1,4.34-.07,4.73s2.41-1.11,3.35-3.34,1-4.34.07-4.73S22.11,61.26,21.17,63.49Z"/><circle class="cls-4" cx="24.41" cy="24.96" r="1.13"/><circle class="cls-4" cx="27.98" cy="24.96" r="1.13"/><path class="cls-2" d="M26.19,54.71a7.63,7.63,0,0,0-5.33,2.1c.4,1.78.86,3.64,1.4,5.57a11.62,11.62,0,0,0,3.93.41,11.65,11.65,0,0,0,3.94-.41c.54-1.93,1-3.79,1.4-5.57A7.66,7.66,0,0,0,26.19,54.71Z"/><path class="cls-2" d="M26.19,50.51A12.18,12.18,0,0,0,20,52.14a99.43,99.43,0,0,0,2.31,10.24,11.62,11.62,0,0,0,3.93.41,11.65,11.65,0,0,0,3.94-.41,99.43,99.43,0,0,0,2.31-10.24A12.22,12.22,0,0,0,26.19,50.51Z"/></g></g></svg>