<svg xmlns="http://www.w3.org/2000/svg" viewBox="0 0 63.11 68.31"><defs><style>.cls-1{isolation:isolate;}.cls-2{fill:#084b69;}.cls-3{fill:#24434a;}.cls-4,.cls-5{fill:#0b7696;}.cls-5{opacity:0.35;mix-blend-mode:multiply;}.cls-6{fill:#b1bfc0;}.cls-7{fill:#e0e7e8;}</style></defs><title>capricorne</title><g class="cls-1"><g id="Calque_2" data-name="Calque 2"><g id="Layer_1" data-name="Layer 1"><path class="cls-2" d="M10.1,54.41c3.22,3.39,5.33,6.89,5.9,11.53l4-.23c-1.83-4.26-3.66-7.57-5.49-11.82a22.66,22.66,0,0,0,6.8-16.32,47.72,47.72,0,0,0-7.54.78,2.38,2.38,0,0,0-1.5.68,2.62,2.62,0,0,0-.22,2.07A22.93,22.93,0,0,1,10.1,54.41Z"/><path class="cls-2" d="M41.35,23.92c-2.31,0-3.9,2.5-4.07,4.81s.63,4.55.89,6.85c.37,3.18-.29,6.38-.66,9.57a52.27,52.27,0,0,0,1.81,20.77l3.26-.06a69.76,69.76,0,0,1-.29-23,80.5,80.5,0,0,0,1.34-9.63A15.34,15.34,0,0,0,41.35,23.92Z"/><path class="cls-3" d="M20.74,67.71a3.29,3.29,0,0,0-5-3.42c0,1.14,0,2.28,0,3.42Z"/><path class="cls-3" d="M44.1,68.31a3.29,3.29,0,0,0-5-3.44l0,3.44Z"/><path class="cls-2" d="M0,32.47s3.76-5.83,9.46-4.27C9.46,28.2,5.31,36.75,0,32.47Z"/><path class="cls-2" d="M13.56,37c-.21,1.78-.43,3.56-.64,5.35a25.19,25.19,0,0,0,11.64,1A75.71,75.71,0,0,0,36,40.69c-.28-2.31-.55-4.61-.83-6.92C28.13,35.74,20.86,37.73,13.56,37Z"/><path class="cls-4" d="M6.81,48.74c-.64,1.9-2.63,3.16-3.07,5.11a6.15,6.15,0,0,0,.2,2.88c.86,3.43,2.45,5.69,4,8.86l3.61-.27A31.39,31.39,0,0,1,7.44,54.7,108,108,0,0,0,16.14,41a23.46,23.46,0,0,0,16.57-3.19c3.32,9.38,2.63,18.68,3.16,28.11l4.35-.41c-.76-7.44-1.41-14.95-.56-22.39,1.06-9.36,4.46-18.29,7.83-27.09a20.66,20.66,0,0,0-5.29-4.34c-3.42,5.49-7.11,11.23-12.84,14.26-6.26,3.31-13.77,2.77-20.82,2.15A13.35,13.35,0,0,0,5.32,41.49C6.11,43.88,7.62,46.35,6.81,48.74Z"/><path class="cls-5" d="M42.2,11.64q-.73,1.18-1.5,2.37A5.09,5.09,0,0,0,42,18.5a6.05,6.05,0,0,0,4.11,1.19c.46-1.24.93-2.48,1.41-3.71A20.66,20.66,0,0,0,42.2,11.64Z"/><path class="cls-3" d="M12.84,68.31a3.38,3.38,0,0,0-1.35-3.16,3.38,3.38,0,0,0-3.71-.06c0,1.13,0,.13,0,3.22Z"/><path class="cls-3" d="M41.12,68.31a3.44,3.44,0,0,0-5.29-3.39c0,1.13,0,2.26.05,3.39Z"/><path class="cls-6" d="M50.8,10.36a10.18,10.18,0,0,0-8.09-10c-4.7-1-9.65.51-13.76,3S21,9.44,16.14,9.64a7.83,7.83,0,0,0-2.51.26,1.78,1.78,0,0,0-1.27,1.92c.26,1.08,1.69,1.3,2.8,1.17,4.77-.56,9.9-3.28,14.46-6.48,3.95-2.75,8-3.83,12.67-2.66,2.88.72,5.33,3.33,5.13,6.29Z"/><path class="cls-6" d="M8.59,16.14c0,.92,1.07,1.43,2,1.61A20.5,20.5,0,0,0,22.74,16,44.74,44.74,0,0,0,33,9.66a9.52,9.52,0,0,1,7-2.44c2.37.24,4,1.5,4,3.89.91,0,2.31-.23,3.22-.23.14-3.2-2.84-5.92-6-6.41s-6.37.77-9.1,2.44-5.21,3.78-8,5.28a23.78,23.78,0,0,1-12.54,2.6,4.83,4.83,0,0,0-1.78.08A1.48,1.48,0,0,0,8.59,16.14Z"/><path class="cls-4" d="M51,19.05a42.29,42.29,0,0,1,5.38,1.44,6.52,6.52,0,0,0,5.37-.58c1.5-1.08,2-3.64.49-4.77a8.58,8.58,0,0,0-3-.94c-3.86-1.13-5.68-6.27-9.65-6.92a5.56,5.56,0,0,0-4.55,1.48,7.57,7.57,0,0,0-2.21,4.34,5.16,5.16,0,0,0,1.24,4.66C45.86,19.36,48.6,18.78,51,19.05Z"/><path class="cls-7" d="M52.6,12.28a1.18,1.18,0,1,1-1.18-1.17A1.18,1.18,0,0,1,52.6,12.28Z"/><path class="cls-7" d="M60.85,19.55a7.57,7.57,0,0,1-4.23-1.2c-.34-.22,0-.89.46-.67a8.38,8.38,0,0,0,5.78.73,3.94,3.94,0,0,1-.62,1A4.19,4.19,0,0,1,60.85,19.55Z"/><path class="cls-2" d="M46.93,13.08S44,7,37.77,9.44A7.31,7.31,0,0,0,46.93,13.08Z"/></g></g></g></svg>