<svg xmlns="http://www.w3.org/2000/svg" viewBox="0 0 62.48 67.39"><defs><style>.cls-1{fill:#eeac00;}.cls-2{fill:#ffbb01;}.cls-3{fill:#24434a;}.cls-4{fill:#0bb2bf;}</style></defs><title>gemeaux</title><g id="Calque_2" data-name="Calque 2"><g id="Layer_1" data-name="Layer 1"><path class="cls-1" d="M14.81,41,15.17,50a2.09,2.09,0,0,1-.29,1.22c-.4.62-.85,2.48.54,8,.35,1.4,1.51,5.95,1.51,5.95l1.79,0V51l1.94-11.32Z"/><path class="cls-2" d="M9.71,41,10.07,50a2.09,2.09,0,0,1-.3,1.22c-.4.62-.85,2.48.54,8,.35,1.4,1.51,5.95,1.51,5.95l1.8,0V51l1.93-11.32Z"/><path class="cls-3" d="M14.9,8.64a13,13,0,0,0,0-4,4.65,4.65,0,0,0-2.11-3.24A4.52,4.52,0,0,0,8,2.05,9.66,9.66,0,0,0,5.12,6.36,23.42,23.42,0,0,0,3.89,18.23a11.35,11.35,0,0,1,.26,2.9A2.89,2.89,0,0,1,2.69,23.5a1.69,1.69,0,0,1-2.34-1,3.59,3.59,0,0,0,1.46,4.57A5.25,5.25,0,0,0,6.88,27a10.16,10.16,0,0,0,3.7-3.72C13.33,19,14.29,13.74,14.9,8.64Z"/><path class="cls-2" d="M30.71,21.21c-.82.38-1.53,1.63-2.1,2.33a9,9,0,0,1-3.17,2.93c-.4.17-1-.49-1.19-.88-.64-1.5-.44-8-3.2-8.63-.72-.17-3.24-.43-4-.58-1.25-.26-1.27-1.75-1.52-3a3.72,3.72,0,0,1-2.19.1,3.78,3.78,0,0,1-.68,2.57c-1.07,1-2.84,1.08-4.26,1.41A2.71,2.71,0,0,0,7.19,18a2.47,2.47,0,0,0-.56,1.5,29,29,0,0,0-.2,3.6,7.22,7.22,0,0,1,2.63.78c.2.12.39.23.58.36.12-.82.32-1.67.53-2.52a4.61,4.61,0,0,1,5.34.78c1.06-.84,2.37-1.8,3.65-1.37,1.1.37,2.57,6.51,3.14,7.4,1.49,2.36,3.49,1.55,5.34.27C29,27.88,32.9,24.4,33.12,23A1.71,1.71,0,0,0,30.71,21.21Z"/><path class="cls-3" d="M22.75,66.34a7.79,7.79,0,0,0-6.5-1.17,4.33,4.33,0,0,0,.14,2l6,.23A.58.58,0,0,0,22.75,66.34Z"/><path class="cls-4" d="M12.21,27.71,6.43,43.53s6.82,5.32,18.36,0L18.91,27.71Z"/><path class="cls-4" d="M11.3,31.14l8-.08a25.69,25.69,0,0,0,2.53-7.68A3,3,0,0,0,21.56,21,2.58,2.58,0,0,0,20,20.19a4.85,4.85,0,0,0-2.8.1,3.13,3.13,0,0,0-1.93,2,1.42,1.42,0,0,0-.52-1.53,3.28,3.28,0,0,0-1.58-.6A4.37,4.37,0,0,0,9.47,21a1.57,1.57,0,0,0-.51.93,2.17,2.17,0,0,0,.13.87C9.87,25.55,10.52,28.35,11.3,31.14Z"/><path class="cls-3" d="M17.4,66.34a7.78,7.78,0,0,0-6.5-1.17,4.2,4.2,0,0,0,.15,2l6,.23A.58.58,0,0,0,17.4,66.34Z"/><path class="cls-2" d="M21.05,7.57c0,3.6-2.56,6.52-5.71,6.52s-5.7-2.92-5.7-6.52S12.19,1,15.34,1,21.05,4,21.05,7.57Z"/><path class="cls-3" d="M7.9,8.29s8.46-1.55,6.06-8C14,.31,7.79.31,7.9,8.29Z"/><path class="cls-3" d="M21.32,5S13.52,7.7,12.08.76C12.08.76,20.22-2.67,21.32,5Z"/><path class="cls-2" d="M16.45,34.37c1.75,0,1.64-2.53.28-2.83-1.9-.42-4.66-1-6.07-2.47C9.58,28,9.6,24.55,9.6,24.55A6.1,6.1,0,0,1,8.88,22a3.56,3.56,0,0,1,.19-1.09c-.67-1.44-1.48-3.14-1.48-3.14a1.72,1.72,0,0,0-.4.26,2.47,2.47,0,0,0-.56,1.5A28.9,28.9,0,0,0,7,28.73a5.49,5.49,0,0,0,1,2.51c.94,1.09,2.46,1.51,3.81,2A17.75,17.75,0,0,0,16.45,34.37Z"/><path class="cls-1" d="M47.67,41,47.31,50a2.09,2.09,0,0,0,.3,1.22c.4.62.85,2.48-.54,8-.35,1.4-1.51,5.95-1.51,5.95l-1.8,0V51L41.83,39.66Z"/><path class="cls-2" d="M52.78,41,52.42,50a2.09,2.09,0,0,0,.29,1.22c.4.62.85,2.48-.54,8-.35,1.4-1.51,5.95-1.51,5.95l-1.79,0V51L46.93,39.66Z"/><path class="cls-3" d="M47.59,8.64a13,13,0,0,1-.05-4,4.69,4.69,0,0,1,2.12-3.24,4.52,4.52,0,0,1,4.88.64,9.64,9.64,0,0,1,2.82,4.31,23.31,23.31,0,0,1,1.23,11.87,11.35,11.35,0,0,0-.26,2.9A2.9,2.9,0,0,0,59.8,23.5a1.7,1.7,0,0,0,2.34-1,3.59,3.59,0,0,1-1.47,4.57A5.25,5.25,0,0,1,55.6,27a10.31,10.31,0,0,1-3.7-3.72C49.15,19,48.19,13.74,47.59,8.64Z"/><path class="cls-2" d="M31.78,21.21c.81.38,1.53,1.63,2.09,2.33a9,9,0,0,0,3.18,2.93c.39.17,1-.49,1.19-.88.63-1.5.44-8,3.2-8.63.72-.17,3.24-.43,4-.58,1.26-.26,1.27-1.75,1.52-3a3.72,3.72,0,0,0,2.19.1,3.78,3.78,0,0,0,.69,2.57c1.07,1,2.83,1.08,4.25,1.41A2.7,2.7,0,0,1,55.3,18a2.4,2.4,0,0,1,.55,1.5,29,29,0,0,1,.21,3.6,7.27,7.27,0,0,0-2.64.78c-.2.12-.39.23-.58.36a24,24,0,0,0-.52-2.52A4.63,4.63,0,0,0,47,22.5c-1.06-.84-2.36-1.8-3.64-1.37-1.1.37-2.58,6.51-3.14,7.4-1.5,2.36-3.5,1.55-5.35.27-1.34-.92-5.26-4.4-5.47-5.78A1.71,1.71,0,0,1,31.78,21.21Z"/><path class="cls-3" d="M39.73,66.34a7.81,7.81,0,0,1,6.51-1.17,4.2,4.2,0,0,1-.15,2l-6,.23A.59.59,0,0,1,39.73,66.34Z"/><path class="cls-4" d="M50.28,27.71l5.78,15.82s-6.83,5.32-18.36,0l5.87-15.82Z"/><path class="cls-4" d="M51.19,31.14l-8-.08a25.39,25.39,0,0,1-2.52-7.68,3,3,0,0,1,.3-2.36,2.61,2.61,0,0,1,1.53-.83,4.85,4.85,0,0,1,2.8.1,3.09,3.09,0,0,1,1.92,2,1.46,1.46,0,0,1,.52-1.53,3.28,3.28,0,0,1,1.59-.6A4.34,4.34,0,0,1,53,21a1.64,1.64,0,0,1,.52.93,2.36,2.36,0,0,1-.13.87C52.62,25.55,52,28.35,51.19,31.14Z"/><path class="cls-3" d="M45.08,66.34a7.79,7.79,0,0,1,6.5-1.17,4.07,4.07,0,0,1-.14,2l-6,.23A.58.58,0,0,1,45.08,66.34Z"/><path class="cls-2" d="M41.44,7.57c0,3.6,2.55,6.52,5.7,6.52s5.7-2.92,5.7-6.52S50.29,1,47.14,1,41.44,4,41.44,7.57Z"/><path class="cls-3" d="M54.58,8.29s-8.45-1.55-6-8C48.53.31,54.69.31,54.58,8.29Z"/><path class="cls-3" d="M41.17,5S49,7.7,50.4.76C50.4.76,42.27-2.67,41.17,5Z"/><path class="cls-2" d="M46,34.37c-1.75,0-1.64-2.53-.29-2.83,1.9-.42,4.66-1,6.07-2.47,1.09-1.12,1.06-4.52,1.06-4.52A6.11,6.11,0,0,0,53.61,22a3.57,3.57,0,0,0-.2-1.09l1.48-3.14a1.59,1.59,0,0,1,.41.26,2.4,2.4,0,0,1,.55,1.5,29.18,29.18,0,0,1-.37,9.23,5.51,5.51,0,0,1-1,2.51c-.93,1.09-2.46,1.51-3.8,2A17.85,17.85,0,0,1,46,34.37Z"/></g></g></svg>