<svg xmlns="http://www.w3.org/2000/svg" viewBox="0 0 77.7 66.29"><defs><style>.cls-1{fill:#ffbb01;}.cls-2{fill:#f58f00;}.cls-3{fill:#eeac00;}.cls-4{fill:#24434a;}.cls-5{fill:#ffe59e;}</style></defs><title>lion</title><g id="Calque_2" data-name="Calque 2"><g id="Layer_1" data-name="Layer 1"><path class="cls-1" d="M1.49,41.66c-.34,2.22-.13,4.75,1.51,6.28a5.33,5.33,0,0,0,6.05.46,8.68,8.68,0,0,0,3.78-5.07c.75-2.44.77-5.06,1.58-7.48s2.83-4.76,5.38-4.68c.13-.61.27-1.22.41-1.83a6.88,6.88,0,0,0-6.42,2.73,10.88,10.88,0,0,0-1.68,4.6c-.28,1.62-.42,3.28-.86,4.86a7.5,7.5,0,0,1-2.58,4.11A4.14,4.14,0,0,1,4,46a2.9,2.9,0,0,1-.6-4.27Z"/><path class="cls-2" d="M.65,36.84A5.1,5.1,0,0,0,.07,40a2.68,2.68,0,0,0,2.17,2.19,3,3,0,0,0,2.08-.73A7.44,7.44,0,0,0,6.9,36.34a25.9,25.9,0,0,0-.32-5.89C4.29,32.28,1.92,34.2.65,36.84Z"/><path class="cls-3" d="M25.45,42.91a48.19,48.19,0,0,0,1.86-5.55c.75-2.21,1.92-4.42,4.14-5.44a4.25,4.25,0,0,1,3.37-.16c2.28.93,2.65,3.43,2.52,5.6a18.7,18.7,0,0,1-4,10.56,16.63,16.63,0,0,1-8.76,5.69,1.6,1.6,0,0,0-1.17,1.3,4.45,4.45,0,0,0,.68,3,6,6,0,0,0,3.48,2.39c1.27.34,2.65.37,3.7,1.25a2.07,2.07,0,0,1,.78,1.65c-.06,1-.84,1.41-1.6,1.68a9.16,9.16,0,0,1-11.91-11C19.69,49.67,23.59,46.83,25.45,42.91Z"/><path class="cls-3" d="M47.74,54.47c.43,1.59-.06,3.26-.38,4.88s-.42,3.46.61,4.74,2.78,1.57,4.39,1.76a5.2,5.2,0,0,0,3.36-.37c1-.6,1.38-2.2.46-2.88-.72-.53-1.74-.23-2.57-.54a2.63,2.63,0,0,1-1.48-2.17,12.16,12.16,0,0,1,.18-2.75,15.63,15.63,0,0,0-1.12-7.85c-.73-1.75-1.78-3.35-2.58-5.07a9.12,9.12,0,0,1-1-5.52c.17-.85.53-1.66.65-2.53a2.45,2.45,0,0,0-.78-2.36,2.31,2.31,0,0,0-2.93.6,7.76,7.76,0,0,0-1.32,3,42.15,42.15,0,0,0-1.44,5.17,8.26,8.26,0,0,0,.63,5.24C43.84,50.31,47,51.7,47.74,54.47Z"/><path class="cls-1" d="M48.17,49.42c2.22,2.57,2.15,6.33,2.12,9.73,0,2.1.15,4.49,1.77,5.83,1.38,1.15,3.35,1.14,5.14,1.07a6.48,6.48,0,0,0,3.12-.64,2.22,2.22,0,0,0,1-2.73c-.86-1.66-3.63-.79-5-2-1-.86-.93-2.4-.8-3.7a67.75,67.75,0,0,0,.25-14.09,29.91,29.91,0,0,0-4.45-13.26C49.49,32.23,47,34.33,45.26,37s-2.52,6.39-.66,9C45.57,47.34,47.09,48.17,48.17,49.42Z"/><path class="cls-1" d="M20.37,27.11c-2.71,1.9-3.88,5.39-4,8.7s.61,6.58.92,9.88c.16,1.68.14,3.57-1,4.81-.52.56-1.23.93-1.73,1.51a5.88,5.88,0,0,0-1,3.88c0,3,.07,6.33,2.21,8.41,2,1.9,5,2.06,7.77,2a5,5,0,0,0,3.61-1.11,2,2,0,0,0,.55-1.82c-.31-1.22-1.64-1.5-2.77-1.45a6.56,6.56,0,0,1-2.9-.14c-1.31-.55-1.86-2.12-2-3.53,0-.56-.09-1.34-.15-2.08a3,3,0,0,1,1.59-2.92,19.19,19.19,0,0,0,9.68-11.5,16.19,16.19,0,0,0,12,1.73,18,18,0,0,0,10.08-6.78,8,8,0,0,0,1.9-5.53c-.24-1.88-1.51-3.43-2.73-4.87a8.42,8.42,0,0,0-3.59-2.91,8.48,8.48,0,0,0-3.37-.12L27.73,25.05C25.17,25.32,22.47,25.62,20.37,27.11Z"/><path class="cls-2" d="M63.24,13.08c-.19-1.86.09-3.78-.38-5.59A9.47,9.47,0,0,0,58.22,2,15.12,15.12,0,0,0,42,2.83a15.14,15.14,0,0,0-5.6,15.26c1.35,5.72,5.88,10.05,10.12,14.11S55.14,40.85,56,46.67a66.09,66.09,0,0,0,7.56-11.85c1.93-4.28,2.92-9.13,1.88-13.71C64.83,18.4,63.52,15.85,63.24,13.08Z"/><path class="cls-1" d="M52.17,9.38a3.1,3.1,0,0,0-3.32,2.12A3.92,3.92,0,0,0,50,15.42a3,3,0,0,0,2.17.88c1.27-.08,2.19-1.2,2.92-2.24a2.77,2.77,0,0,0,.61-1.42,2.74,2.74,0,0,0-1.24-2A5,5,0,0,0,52.17,9.38Z"/><path class="cls-1" d="M75,21.83c.66-1.41,1.34-3,.89-4.47a6.38,6.38,0,0,0-2.51-3L64.26,7.26a7.05,7.05,0,0,0-3-1.64c-2.45-.43-4.56,1.71-6,3.77-2.07,3-3.78,6.7-3.08,10.31.92,4.73,5.61,7.87,7.12,12.43a21.8,21.8,0,0,1,3.46-5.48,7.29,7.29,0,0,1,5.78-2.46c1.44.14,2.94.85,4.27.28A4.84,4.84,0,0,0,75,21.83Z"/><path class="cls-4" d="M67,11.68a1.46,1.46,0,1,1-1.46-1.45A1.46,1.46,0,0,1,67,11.68Z"/><path class="cls-5" d="M74.81,19.46c.13-.34,1.38-1.14,1.35-.88a10,10,0,0,1-2.56,5.47c-1.32,1.27-3.61.32-5.15.31-4,0-5.93,2.18-9.1,7.77,0,0,1.77-5.51,2.48-7.8a5.35,5.35,0,0,1,1.59-2.85,4.28,4.28,0,0,1,3.66-.36,21.7,21.7,0,0,0,3.68,1A4.05,4.05,0,0,0,74.81,19.46Z"/><path class="cls-4" d="M77.53,16.52c.76,1.58-1.21,3.1-1.92,3.53-.56-.37-1.94-.75-2.37-1.25A2.2,2.2,0,0,1,72.63,17a2.52,2.52,0,0,1,2.52-1.76A2.55,2.55,0,0,1,77.53,16.52Z"/></g></g></svg>