<svg xmlns="http://www.w3.org/2000/svg" viewBox="0 0 84.85 60.94"><defs><style>.cls-1{fill:#00838d;}.cls-2{fill:#0bb2bf;}.cls-3{fill:#7ed6dd;}</style></defs><title>poisson</title><g id="Calque_2" data-name="Calque 2"><g id="Layer_1" data-name="Layer 1"><path class="cls-1" d="M29,21l-4.07,6.49S27.85,31.29,28.3,34C28.3,34,35,28,29,21Z"/><path class="cls-1" d="M16.8,8S1.53,13.22,0,21c0,0,1.78,4.71,10.69,4.07C10.69,25.05,20.87,10.55,16.8,8Z"/><path class="cls-2" d="M42.5.11S9.42-3.07,9,24.16c0,0-.25,19.47,15.53,23.41l1.2-1.65S15.65,37,35.75,18.05C35.75,18.05,47.2,12,42.5.11Z"/><path class="cls-1" d="M42.5.11A47.91,47.91,0,0,0,27.59,1.44s-2.53,6.31.66,11.4,7.5,5.21,7.5,5.21S47.2,12,42.5.11Z"/><path class="cls-3" d="M35.63,4.31A1.66,1.66,0,1,1,34,2.66,1.66,1.66,0,0,1,35.63,4.31Z"/><path class="cls-3" d="M39.13,10.79a4,4,0,0,1-1.38-.17c-.53-.19-.25-1.08.25-1a5.07,5.07,0,0,0,3.26-.37,4.73,4.73,0,0,0,2.35-2.83,10.67,10.67,0,0,1-.48,2.71,4.77,4.77,0,0,1-1.41,1A5.94,5.94,0,0,1,39.13,10.79Z"/><path class="cls-3" d="M35.75,18.05s-4.1-.19-7.21-4.78c-4.14,5.91-13,21.28-3.36,33.45l.58-.8S15.65,37,35.75,18.05Z"/><path class="cls-1" d="M30.23,60.92c-.25.32-11.81-5.48-5.57-15.15,0,0,6.36-5.47,15.52,2.42,0,0-3.09,6.07-9.87,2.92C30.31,51.11,33.79,56.34,30.23,60.92Z"/><path class="cls-1" d="M55.84,40l4.07-6.49S57,29.65,56.54,27C56.54,27,49.86,33,55.84,40Z"/><path class="cls-1" d="M68.05,52.93s15.27-5.21,16.8-13c0,0-1.79-4.71-10.69-4.08C74.16,35.88,64,50.39,68.05,52.93Z"/><path class="cls-2" d="M42.35,60.82s33.08,3.18,33.46-24c0,0,.26-19.46-15.52-23.41L59.08,15s10.12,8.9-10,27.86C49.09,42.88,37.64,49,42.35,60.82Z"/><path class="cls-1" d="M42.35,60.82a47.84,47.84,0,0,0,14.9-1.33s2.53-6.3-.65-11.39-7.51-5.22-7.51-5.22S37.64,49,42.35,60.82Z"/><path class="cls-3" d="M49.22,56.62a1.66,1.66,0,1,1,1.65,1.66A1.65,1.65,0,0,1,49.22,56.62Z"/><path class="cls-3" d="M45.72,50.15a4.19,4.19,0,0,1,1.37.16c.54.19.26,1.09-.24,1a5.13,5.13,0,0,0-3.26.36,4.72,4.72,0,0,0-2.35,2.83,10.84,10.84,0,0,1,.47-2.7,4.94,4.94,0,0,1,1.41-1A6,6,0,0,1,45.72,50.15Z"/><path class="cls-3" d="M49.09,42.88s4.11.2,7.21,4.78c4.14-5.91,13-21.27,3.37-33.45l-.59.81S69.2,23.92,49.09,42.88Z"/><path class="cls-1" d="M54.62,0c.25-.31,11.8,5.49,5.57,15.16,0,0-6.36,5.47-15.52-2.42,0,0,3.08-6.07,9.86-2.93C54.53,9.82,51.06,4.59,54.62,0Z"/></g></g></svg>