<svg xmlns="http://www.w3.org/2000/svg" viewBox="0 0 61.3 67.72"><defs><style>.cls-1{fill:#d77b00;}.cls-2{fill:#24434a;}.cls-3{fill:#f58f00;}.cls-4{fill:#eeac00;}.cls-5{fill:#dd9800;}.cls-6{fill:#0b7696;}.cls-7{fill:#ffbb01;}</style></defs><title>sagittaire</title><g id="Calque_2" data-name="Calque 2"><g id="Layer_1" data-name="Layer 1"><path class="cls-1" d="M13.62,54.63c.26-2.11,1.42-4,2.38-5.88s1.78-4,1.28-6.11a16.91,16.91,0,0,1,7.29-1.44c.37,2.18-.78,4.34-2.2,6s-3.16,3.14-4.34,5c-2.52,4-2,9.24-.41,13.7l-3.17.38q-.37-4.32-.77-8.64A14.81,14.81,0,0,1,13.62,54.63Z"/><path class="cls-2" d="M12.85,36.9c.46-1.11-.59-2.27-1.66-2.83-2-1-4.67-1.78-6.76-.93A6.36,6.36,0,0,0,0,38.51a6.52,6.52,0,0,0,3.16,6,4.14,4.14,0,0,1,2.13,2.85c0,.64,0,1.39-.71,1.73a1.93,1.93,0,0,1-2.33-.32,3,3,0,0,0,3.3,3.06,3.71,3.71,0,0,0,3.58-3.26c.22-2.47-2.07-4.51-2.36-7a4.46,4.46,0,0,1,6-4.67Z"/><path class="cls-3" d="M45.63,40.89c-1.89-2.47-6.36-.94-8.51-3.19a4,4,0,0,1-1-2.42L36,31.92c-1.46-1.37-3.93-1.08-5.76-.16s-3.6,2.47-5.67,3-4.57,0-6.85-.22-4.87-.13-6.49,1.5C9.42,37.92,9.54,40.92,10,43.49s1,5.39-.27,7.68A17.54,17.54,0,0,0,8,54c-.56,1.77.45,3.67.33,5.52-.08,1.32-.87,6.78-.87,6.78.74-.08,2.07.53,2.82.45a53.2,53.2,0,0,1,1.36-10.1A18.2,18.2,0,0,1,13,52c1.64-3.25,5.18-5.47,6-9,2.81.41,5,.72,7.72-.12-1.19,1.2-.23,3.3,1.14,4.28,1.15.84,3,.61,4.44.7a.51.51,0,0,1,.42.74,14.53,14.53,0,0,1-5.34,5.66l.17,2.13a19.85,19.85,0,0,0,9-8.48,3,3,0,0,0,.45-2.49c-.46-1.13-2-1.42-3.07-2-.49-.3,2.07-.54,2.07-.54l3.93.9a2.92,2.92,0,0,1,1.71.83c.6.76.3,1.88-.1,2.77a18.76,18.76,0,0,1-5.6,7.28c0,.78.15,1.79.1,2.57,1.06-.19,4.09-3.2,4.86-4a26.5,26.5,0,0,0,5.31-8.73A4.05,4.05,0,0,0,45.63,40.89Z"/><path class="cls-2" d="M28.28,55.7l-.07-2.28H25.85c-.05,1.37-.1,2.75-.14,4.12l1.09-.12A1.66,1.66,0,0,0,28.28,55.7Z"/><path class="cls-2" d="M36.57,56.36l-.08-2.28H34.13c0,1.37-.09,2.75-.13,4.12l1.09-.12A1.68,1.68,0,0,0,36.57,56.36Z"/><path class="cls-4" d="M56.91,24.69c-.85-.3-2.47.55-3.37.5-2.33-.14-4.68.24-7,0S41.77,24,40.71,21.88c-.83-1.63-.75-3.76-2.1-5a6,6,0,0,0-2.8-1.14A5.79,5.79,0,0,1,33,14.61a2,2,0,0,1-.34-2.72,3.94,3.94,0,0,0-2.87-.74A4.8,4.8,0,0,1,29,16.29c-.74.79-2.73.36-3.23,1.31-.77,1.48,1,4.24,1.52,5.82a17.6,17.6,0,0,1,.43,9.91,7,7,0,0,0,5.24,1.52c1.08-.08,3.14-.43,3.14-.43-.07-4.09.28-7.15.2-11.24,1.35,3.63,4.79,4.78,8.58,5.54s7.72.22,11.55-.32C58.58,27.76,57.9,25,56.91,24.69Z"/><path class="cls-5" d="M56.91,24.69c-.85-.3-2.47.55-3.37.5-2.33-.14-4.68.24-7,0S41.77,24,40.71,21.88c-.83-1.63-.75-3.76-2.1-5a6,6,0,0,0-2.8-1.14,10.38,10.38,0,0,1-1.22-.31s3.67,3.72,1.73,7.82c1.36,3.58,4.77,4.7,8.54,5.46s7.72.22,11.55-.32C58.58,27.76,57.9,25,56.91,24.69Z"/><polygon class="cls-2" points="55.17 9.41 54.88 9.41 34.24 26.87 54.7 42.3 55.17 42.3 35.09 26.87 55.17 9.41"/><path class="cls-6" d="M59.13,15.7c-3.57-4.13-4.26-3.71-3.57-8,0,0-3.71,4.23-.55,7.86s1.71,7.45-1.28,10v1.37c3,2.55,4.44,6.38,1.28,10s.55,7.85.55,7.85c-.69-4.33,0-3.92,3.57-8,3.11-3.58-.94-9.11-2.07-10.51C58.19,24.81,62.24,19.28,59.13,15.7Z"/><path class="cls-2" d="M9.64,65.15l-2.33.08v2.36l4.12.13-.12-1.14A1.62,1.62,0,0,0,9.64,65.15Z"/><path class="cls-2" d="M16.66,65.15l-2.33.08v2.36l4.13.13c-.05-.38-.09-.76-.13-1.14A1.62,1.62,0,0,0,16.66,65.15Z"/><path class="cls-7" d="M35.62,5.74c.3,3.06-1.55,5.74-4.13,6s-4.91-2-5.21-5.08,1.55-5.73,4.13-6S35.32,2.69,35.62,5.74Z"/><path class="cls-2" d="M36.3,3.84S33.41-3.43,24.89,2c0,0,.87,7-3.07,8.27,0,0,6.64,6.14,14.48,1.18,0,0,0-2.88-1.5-2.88s-3.54,3-5.74-.62c0,0-.56-1,0-4.46A6.84,6.84,0,0,0,36.3,3.84Z"/><polygon class="cls-2" points="61.3 26.59 58.66 24.78 58.66 26.19 33.74 26.19 33.74 27.01 58.66 27.01 58.66 28.41 61.3 26.59"/><path class="cls-7" d="M35.73,26.64a2.45,2.45,0,0,0-1.52-.58l-10.35-.41a.58.58,0,0,1-.47-.89A6.16,6.16,0,0,1,27,22.49s1.63-.68,2-1.78c.49-1.37.29-3.82-2-3.73a4.06,4.06,0,0,0-1.94.5c-1.88.82-6.66,7.05-7.09,8a2.67,2.67,0,0,0-.22,1.55c.26,1.45,1.71,1.69,2.94,1.8,4.12.35,8.27.54,12.41.58a4.7,4.7,0,0,0,2-.27A1.48,1.48,0,0,0,35.73,26.64Z"/></g></g></svg>