<svg xmlns="http://www.w3.org/2000/svg" viewBox="0 0 60.4 67.63"><defs><style>.cls-1{fill:#0bb2bf;}.cls-2{fill:#0b7696;}</style></defs><title>scorpion</title><g id="Calque_2" data-name="Calque 2"><g id="Layer_1" data-name="Layer 1"><path class="cls-1" d="M28.69,59.54a3.3,3.3,0,1,1-3.29-3.3A3.29,3.29,0,0,1,28.69,59.54Z"/><path class="cls-1" d="M32.19,63.58a3.3,3.3,0,1,1-3.3-3.3A3.3,3.3,0,0,1,32.19,63.58Z"/><path class="cls-1" d="M37.78,64.36a3.28,3.28,0,1,1-3.28-3.28A3.27,3.27,0,0,1,37.78,64.36Z"/><path class="cls-1" d="M43.37,63a3.16,3.16,0,1,1-3.16-3.16A3.16,3.16,0,0,1,43.37,63Z"/><path class="cls-1" d="M48.57,60.51a3.24,3.24,0,1,1-3.24-3.25A3.24,3.24,0,0,1,48.57,60.51Z"/><path class="cls-1" d="M52.29,57.14A3.15,3.15,0,1,1,49.14,54,3.15,3.15,0,0,1,52.29,57.14Z"/><path class="cls-1" d="M55.5,53.06a3.18,3.18,0,1,1-3.18-3.18A3.18,3.18,0,0,1,55.5,53.06Z"/><path class="cls-1" d="M57.19,48.5a3.1,3.1,0,1,1-3.1-3.11A3.1,3.1,0,0,1,57.19,48.5Z"/><circle class="cls-1" cx="55.05" cy="43.69" r="3.03"/><path class="cls-1" d="M44.45,13.72a5.63,5.63,0,0,1,2.23,5.75,5.63,5.63,0,0,1-4.54,4.18A9.76,9.76,0,0,1,44.45,13.72Z"/><path class="cls-1" d="M33.84,20.41a29.69,29.69,0,0,1,4.59,2c1.54.65,3.43.95,4.81,0,.53,1.59-1,3.27-2.59,3.63a10.18,10.18,0,0,1-4.94-.66c-1.61-.47-3.37-.87-4.93-.23C29,25.94,27.65,28,25.67,28a6.7,6.7,0,0,1,8.17-7.62Z"/><path class="cls-1" d="M45.79,27.09c.68.44.6,1.48.27,2.21A7.27,7.27,0,0,1,40.92,33a26,26,0,0,1-6.54.23A15.91,15.91,0,0,0,27.9,34c-1-1.3-.11-3.35,1.35-4.09a7.51,7.51,0,0,1,4.81-.23,11.64,11.64,0,0,0,4.86.36c1.89-.45,3.34-1.91,5.08-2.78A1.84,1.84,0,0,1,45.79,27.09Z"/><path class="cls-1" d="M36.78,39.65a6.32,6.32,0,0,0-6.84,1.62,13,13,0,0,0-.31-2.85,7.48,7.48,0,0,1,7.08-3c1.72.26,3.42,1.14,5.13.81,2.12-.4,3.91-2.58,6-2a6.16,6.16,0,0,1-2.2,3.63A18.14,18.14,0,0,1,42,40.11a4.84,4.84,0,0,1-1.85.66C38.92,40.85,37.88,40.08,36.78,39.65Z"/><path class="cls-1" d="M46.37,40.83a1.61,1.61,0,0,1,.21,1.82,4.32,4.32,0,0,1-1.34,1.42A24.29,24.29,0,0,1,41,46.61a4.54,4.54,0,0,1-2,.56,7.38,7.38,0,0,1-2.17-.59,8.4,8.4,0,0,0-8,1.6,3.86,3.86,0,0,1,1.8-4.28,8.57,8.57,0,0,1,4.82-1,32.14,32.14,0,0,0,5,.07A19.32,19.32,0,0,0,46.37,40.83Z"/><path class="cls-1" d="M3.38,13.72a5.63,5.63,0,0,0-2.23,5.75,5.63,5.63,0,0,0,4.54,4.18A9.76,9.76,0,0,0,3.38,13.72Z"/><path class="cls-1" d="M14,20.41a29.69,29.69,0,0,0-4.59,2c-1.54.65-3.43.95-4.81,0-.53,1.59,1,3.27,2.59,3.63a10.17,10.17,0,0,0,4.94-.66c1.61-.47,3.37-.87,4.93-.23,1.83.75,3.13,2.84,5.12,2.84A6.71,6.71,0,0,0,14,20.41Z"/><path class="cls-1" d="M2,27.09c-.68.44-.6,1.48-.27,2.21A7.27,7.27,0,0,0,6.91,33a26,26,0,0,0,6.54.23,15.91,15.91,0,0,1,6.48.75c1-1.3.11-3.35-1.35-4.09a7.51,7.51,0,0,0-4.81-.23A11.64,11.64,0,0,1,8.91,30C7,29.58,5.57,28.12,3.83,27.25A1.84,1.84,0,0,0,2,27.09Z"/><path class="cls-1" d="M11.05,39.65a6.32,6.32,0,0,1,6.84,1.62,13,13,0,0,1,.31-2.85,7.48,7.48,0,0,0-7.08-3c-1.72.26-3.42,1.14-5.13.81-2.12-.4-3.91-2.58-6-2a6.16,6.16,0,0,0,2.2,3.63,18.14,18.14,0,0,0,3.67,2.27,4.84,4.84,0,0,0,1.85.66C8.91,40.85,10,40.08,11.05,39.65Z"/><path class="cls-1" d="M1.46,40.83a1.61,1.61,0,0,0-.21,1.82,4.32,4.32,0,0,0,1.34,1.42,24.29,24.29,0,0,0,4.24,2.54,4.54,4.54,0,0,0,2,.56A7.38,7.38,0,0,0,11,46.58a8.4,8.4,0,0,1,8,1.6,3.87,3.87,0,0,0-1.79-4.28,8.62,8.62,0,0,0-4.83-1,32.14,32.14,0,0,1-5,.07A19.32,19.32,0,0,1,1.46,40.83Z"/><path class="cls-2" d="M29,11.89s-2.69,2.86-5.11,3c-2.42-.14-5.12-3-5.12-3-2.36,5.46,3.38,7.34,4.93,7.74v.09l.19,0,.18,0v-.09C25.65,19.23,31.39,17.35,29,11.89Z"/><path class="cls-2" d="M30.16,37.21c0,12-2.8,21.74-6.24,21.74s-6.24-9.73-6.24-21.74,2.79-21.75,6.24-21.75S30.16,25.2,30.16,37.21Z"/><path class="cls-2" d="M23.92,15.46c-3.45,0-6.24,9.74-6.24,21.75a58.5,58.5,0,0,0,1.77,15.16,10.21,10.21,0,0,0,8.94,0,58.94,58.94,0,0,0,1.77-15.16C30.16,25.2,27.36,15.46,23.92,15.46Z"/><path class="cls-2" d="M23.92,15.46c-3.45,0-6.24,9.74-6.24,21.75a70.8,70.8,0,0,0,.55,8.94,16.35,16.35,0,0,0,11.37,0,70.72,70.72,0,0,0,.56-8.94C30.16,25.2,27.36,15.46,23.92,15.46Z"/><path class="cls-2" d="M23.92,15.46c-3.45,0-6.24,9.74-6.24,21.75,0,.5,0,1,0,1.49a21.23,21.23,0,0,0,12.43,0c0-.5,0-1,0-1.49C30.16,25.2,27.36,15.46,23.92,15.46Z"/><path class="cls-2" d="M23.92,34.12a19.73,19.73,0,0,0,6.13-1c-.55-10.07-3.09-17.7-6.13-17.7s-5.59,7.63-6.13,17.7A19.63,19.63,0,0,0,23.92,34.12Z"/><path class="cls-2" d="M23.92,28.72a15.9,15.9,0,0,0,5.6-1c-1-7.24-3.14-12.23-5.6-12.23s-4.6,5-5.61,12.23A15.91,15.91,0,0,0,23.92,28.72Z"/><path class="cls-2" d="M60.25,34.7a4.21,4.21,0,0,0-1-3c-.79-.75-2.35-.68-2.72.33a22.22,22.22,0,0,0-2.18,9.91,4.47,4.47,0,0,0,4.68-2A8.9,8.9,0,0,0,60.25,34.7Z"/><path class="cls-2" d="M59.38,26.1c-1-1.66-3-3.06-4.81-2.31,1.18.77,1,2.55.47,3.85s-1.33,2.66-.95,4a2.94,2.94,0,0,0,3.53,1.85,4,4,0,0,0,2.71-3.18A6.26,6.26,0,0,0,59.38,26.1Z"/><path class="cls-2" d="M32.92.27s7.61,6,0,6.37c0,0,2.46,13.57,12.12,7.08C52.87,8.46,37.86-1.79,32.92.27Z"/><path class="cls-2" d="M14.91.27s-7.61,6,0,6.37c0,0-2.46,13.57-12.12,7.08C-5,8.46,10-1.79,14.91.27Z"/></g></g></svg>