<svg xmlns="http://www.w3.org/2000/svg" viewBox="0 0 70.52 67.55"><defs><style>.cls-1{isolation:isolate;}.cls-2{fill:#869b9d;}.cls-3{fill:#d77b00;}.cls-4{fill:#24434a;}.cls-5{fill:#f58f00;}.cls-6{fill:#be6c00;}.cls-7{fill:#c77b22;opacity:0.35;mix-blend-mode:multiply;}.cls-8{fill:#c26d00;}.cls-9{fill:#633b00;}.cls-10{fill:#b1bfc0;}</style></defs><title>taureau</title><g class="cls-1"><g id="Calque_2" data-name="Calque 2"><g id="Layer_1" data-name="Layer 1"><path class="cls-2" d="M57,10.09c-.24.61-.23,1.38-.75,1.77a1.32,1.32,0,0,1-1.76-.39A3.44,3.44,0,0,1,54,9.58a4.9,4.9,0,0,1,.82-3.51c1-1.15,2.72-1.27,4.22-1a15.61,15.61,0,0,0,4.49.51,7.28,7.28,0,0,0,3.91-2.19c1.08-1.06,2-2.29,3.09-3.35a16.19,16.19,0,0,1-.71,5.72,5.51,5.51,0,0,1-4.12,3.67c-1.55.2-3.06-.52-4.6-.82S57.6,8.62,57,10.09Z"/><path class="cls-3" d="M51.87,27.78c.22-1.57.92-3.54,2.51-3.55,4.94,12.73-2.77,28.14,1,41.26l-3.14.21A128.87,128.87,0,0,1,51.87,27.78Z"/><path class="cls-4" d="M57.41,67.55c.05-.83,0-1.85-.76-2.22A7.56,7.56,0,0,0,53,64.47c0,1,.09,2,.13,3.08Z"/><path class="cls-3" d="M31.1,50.34c-1.94,1.29-4.17,2.2-5.74,3.92-2.68,2.94-2.69,7.36-2.54,11.34l-4.42-.21c-1.48-6.45.93-13.32,5-18.57,3.61-4.71,9-8.57,15-8.31A16.75,16.75,0,0,1,31.1,50.34Z"/><path class="cls-4" d="M23.86,67.55c.05-.83-.11-2-.54-2.22a10.51,10.51,0,0,0-3.65-.86c0,1,.09,2,.13,3.08Z"/><path class="cls-5" d="M2,38.13a10.48,10.48,0,0,0,.72,3.81,4.65,4.65,0,0,0,2.7,2.64,4.86,4.86,0,0,0,4.39-1,14,14,0,0,0,2.92-3.64c2.28-3.63,4.53-7.46,5-11.72a21.5,21.5,0,0,0-6,8.25c-.76,1.84-1.49,4-3.37,4.68a3.62,3.62,0,0,1-3.59-.94,5.68,5.68,0,0,1-1.55-3.5.75.75,0,0,0-1,.29A2.07,2.07,0,0,0,2,38.13Z"/><path class="cls-5" d="M53.46,44.66c.38-2.57.95-5.2.47-7.76-.32-1.72-1.12-3.37-1.1-5.12,0-2.29,1.42-4.31,2.3-6.42,2-4.81,7.9-10.69,4.8-14.87-8.76-4-14,2.22-16.23,5.4s-4.11,6.91-7.54,8.76S28.51,26,24.58,26.16s-8.46,1.66-9.65,5.41C13.2,37,19.78,42.2,18.8,47.82c-.4,2.3-2,4.19-2.87,6.38-1.38,3.6-.53,7.62.33,11.38,1.32-.07,2.32-.14,3.63-.2-.39-3.88-.37-8.12,1.84-11.33,2.76-4,8.79-5.33,10.49-9.89A13.79,13.79,0,0,0,44,44a12.83,12.83,0,0,0,4.67,4.44,70.31,70.31,0,0,0,1.14,17.49l3.44-.46C51.84,59.11,52.51,51.09,53.46,44.66Z"/><path class="cls-4" d="M20.43,67.55c.05-.83.07-2-.54-2.32a11.74,11.74,0,0,0-4-.91c0,1.08.09,2.15.14,3.23Z"/><path class="cls-6" d="M5.15,34.67a5.78,5.78,0,0,0-3.37-5.56,2.43,2.43,0,0,1-.18,2.65,13.5,13.5,0,0,0-1.46,2.4,3.27,3.27,0,0,0,2.62,4.11C4.19,37.24,5.15,36,5.15,34.67Z"/><path class="cls-7" d="M61.52,11.27a23.92,23.92,0,0,0-4.08-1.69c-1,1-1.29,2.76-2.38,3.64-2,1.63-5.2-.33-7.5.83a3.14,3.14,0,0,0-1.46,3.84,3.37,3.37,0,0,0,3.2,2.17c-1.34.2-2,3-.92,4.81s3.45,2.87,5.49,3.19l1-2a.74.74,0,0,1,.61-.35c1.19-.16,1.54-1.12,2.14-2.16C60,19.36,64.16,14.83,61.52,11.27Z"/><path class="cls-5" d="M56.19,14.2c-1.7,1.38-4.42-.28-6.37.7a2.57,2.57,0,0,0,1.93,4.74c-1.66.58-2.13,2.93-1.23,4.45A6.07,6.07,0,0,0,55,26.62c1.74.27,3.52.16,5.25.45,1.14.18,2.24.54,3.38.68a4.85,4.85,0,0,0,3.31-.62,2.53,2.53,0,0,0,1-3,4.64,4.64,0,0,1-3.09-3.39A25.49,25.49,0,0,1,64.23,16a7.16,7.16,0,0,0-1.7-4.41c-1.14-1.14-3.17-1.49-4.34-.38C57.31,12,57.14,13.43,56.19,14.2Z"/><path class="cls-8" d="M66,22.9c-1.68-.84-3.42-1-4.57-.18-.06,0-1.25,3.14,1,4.82.39.08.78.16,1.17.21a4.85,4.85,0,0,0,3.31-.62,2.53,2.53,0,0,0,1-3S67.21,23.62,66,22.9Z"/><path class="cls-9" d="M66,25.91c-.15-.37-.45-1.36.69-1.31s.48.9.16,1.27C66.73,26,66.26,26.6,66,25.91Z"/><path class="cls-4" d="M63.07,16.55a1.36,1.36,0,1,1-1.35-1.35A1.35,1.35,0,0,1,63.07,16.55Z"/><path class="cls-4" d="M64.39,27.8a3.27,3.27,0,0,1-1.82-1.12,3.89,3.89,0,0,1-1-3.1c.07-.47.78-.35.76.14a3.55,3.55,0,0,0,.82,2.45,4.78,4.78,0,0,0,3.21,1.26A3.54,3.54,0,0,1,64.39,27.8Z"/><path class="cls-4" d="M54,67.55c.05-.83-.11-2-.71-2.32a8.61,8.61,0,0,0-4-.91c0,1.08.1,2.15.14,3.23Z"/><path class="cls-10" d="M54.36,10.54c-.24.61-.22,1.38-.75,1.78a1.32,1.32,0,0,1-1.75-.4A3.35,3.35,0,0,1,51.33,10a4.85,4.85,0,0,1,.82-3.51c1-1.14,2.72-1.27,4.21-1A15.31,15.31,0,0,0,60.85,6,7.28,7.28,0,0,0,64.76,3.8c1.09-1.06,2-2.29,3.09-3.35a16.18,16.18,0,0,1-.7,5.72A5.51,5.51,0,0,1,63,9.84C61.47,10,60,9.32,58.42,9S54.93,9.07,54.36,10.54Z"/></g></g></g></svg>