<svg xmlns="http://www.w3.org/2000/svg" viewBox="0 0 59.88 70.27"><defs><style>.cls-1{fill:#ffbb01;}.cls-2{fill:#0b7696;}.cls-3{fill:#c8d6d8;}.cls-4{fill:#0bb2bf;}.cls-5{fill:#7ed6dd;}.cls-6{fill:#24434a;}</style></defs><title>verseau</title><g id="Calque_2" data-name="Calque 2"><g id="Layer_1" data-name="Layer 1"><path class="cls-1" d="M31.79,67.93a.62.62,0,0,0,.63.88l4.78-.5a2.61,2.61,0,0,0,1.45-.47c.62-.54.56-1.51.57-2.34,0-2.39,1.09-4.63,1.71-6.93,1.56-5.71.52-11.93,2.35-17.56-1.6.21-4.48-.62-6-1-.34,3.56.73,5.44.23,11.41-.42,5-.7,7.35-1,11a5,5,0,0,1-.53,2.16,6.57,6.57,0,0,1-2.53,1.88A4.12,4.12,0,0,0,31.79,67.93Z"/><path class="cls-1" d="M54.38,67.93a.61.61,0,0,1-.62.88L49,68.31a2.58,2.58,0,0,1-1.44-.47C46.9,67.3,47,66.33,47,65.5c0-2.39-1.08-4.63-1.71-6.93C43.68,52.86,44.73,46.64,42.9,41c1.59.21,4.48-.62,6-1,.34,3.56-.73,5.44-.22,11.41.41,5,.69,7.35,1,11a5,5,0,0,0,.54,2.16,6.46,6.46,0,0,0,2.52,1.88A4.05,4.05,0,0,1,54.38,67.93Z"/><path class="cls-2" d="M21,8.3c-3.37-.62-6.85,1.21-9,3.88s-3.17,6.07-3.83,9.44c-2.67,13.67,0,27.8-1,41.7A3.52,3.52,0,0,0,2.75,61.7a4.63,4.63,0,0,0-2,6.73,4.63,4.63,0,0,0,7,.14,3.69,3.69,0,0,0,3.77,1.64,3.71,3.71,0,0,0,2.82-3A5.26,5.26,0,0,0,19,69a4.25,4.25,0,0,0,3.55-3.3,3.58,3.58,0,0,0-2.44-4,3.1,3.1,0,0,0-3.78,2.52,168.73,168.73,0,0,0-.75-36.36c-.35-2.69-.76-5.46-.13-8.1s2.6-5.18,5.29-5.57Z"/><path class="cls-3" d="M5.49,68.19a3.75,3.75,0,0,1-.82-.09A3,3,0,0,1,2.39,66a2.22,2.22,0,0,1,.33-1.78A1.87,1.87,0,0,1,4,63.35a1.76,1.76,0,0,1,1.65.78,1.52,1.52,0,0,1,.25,1.31c-.12.4-.74.33-.7-.26A.93.93,0,0,0,5,64.56a1,1,0,0,0-.92-.46,1.14,1.14,0,0,0-.77.52,1.61,1.61,0,0,0-.23,1.2,2.34,2.34,0,0,0,1.74,1.55,3.17,3.17,0,0,0,2.73-.72,3.17,3.17,0,0,0,1.23-2.53,7.2,7.2,0,0,0-.15-1,4.6,4.6,0,0,1-.09-1.85,4.28,4.28,0,0,1,.67-1.45,3.44,3.44,0,0,0,.59-1.36,3.36,3.36,0,0,0-.62-1.93,6.08,6.08,0,0,1-.71-1.77,5.41,5.41,0,0,1,.71-3,6.07,6.07,0,0,0,.7-2.27,5.85,5.85,0,0,0-.53-2.13,6.56,6.56,0,0,1-.58-2.4,6.57,6.57,0,0,1,.76-2.54A5.4,5.4,0,0,0,10.24,40a5.34,5.34,0,0,0-.69-2,6.27,6.27,0,0,1-.75-2.07,6.29,6.29,0,0,1,.82-3.39,9.72,9.72,0,0,0,.75-2.05A9,9,0,0,0,10,26.68c-.14-.55-.28-1.11-.38-1.67a13.28,13.28,0,0,1,2.36-9.78,18.33,18.33,0,0,1,8-6.23l.3.69a17.56,17.56,0,0,0-7.64,6,12.59,12.59,0,0,0-2.23,9.22c.1.53.23,1.08.37,1.61a9.73,9.73,0,0,1,.41,4.15,10.25,10.25,0,0,1-.8,2.21,5.67,5.67,0,0,0-.76,3,5.78,5.78,0,0,0,.68,1.82A5.81,5.81,0,0,1,11,39.93a5.82,5.82,0,0,1-.74,2.77,6,6,0,0,0-.69,2.24,5.85,5.85,0,0,0,.53,2.13,6.36,6.36,0,0,1,.57,2.41A6.43,6.43,0,0,1,9.89,52a4.84,4.84,0,0,0-.65,2.61,5.22,5.22,0,0,0,.63,1.53,4,4,0,0,1,.71,2.38,4.09,4.09,0,0,1-.7,1.66,4.18,4.18,0,0,0-.58,1.21A4.19,4.19,0,0,0,9.4,63a7.73,7.73,0,0,1,.16,1.09,3.91,3.91,0,0,1-1.51,3.15A4,4,0,0,1,5.49,68.19Z"/><path class="cls-3" d="M10.59,69.23a1.65,1.65,0,0,1-1.38-.85,1.29,1.29,0,0,1,0-1.39,1.18,1.18,0,0,1,1.13-.34,1.26,1.26,0,0,1,.76.49c.27.38-.33.81-.69.35a.5.5,0,0,0-.62,0c-.12.17,0,.44.06.54a.9.9,0,0,0,.78.47,1.55,1.55,0,0,0,1.21-1.38,5.09,5.09,0,0,0-.39-2.27A6,6,0,0,1,11,62.24a6.17,6.17,0,0,1,.68-2,3.38,3.38,0,0,0,.52-2.37,3.33,3.33,0,0,0-.69-1.06,4.84,4.84,0,0,1-.71-1.05c-.61-1.32,0-2.64.51-3.92a7,7,0,0,0,.76-2.72,6.13,6.13,0,0,0-.63-2.11,6.54,6.54,0,0,1-.69-2.38,6.42,6.42,0,0,1,.71-2.76,6,6,0,0,0,.65-2.49,5.84,5.84,0,0,0-.68-2.08,6.59,6.59,0,0,1-.74-2.27,6.5,6.5,0,0,1,.58-2.79,8.38,8.38,0,0,0,.52-1.81,8.43,8.43,0,0,0-.57-3.62,19,19,0,0,1-.56-2.13,11.25,11.25,0,0,1,2.58-8.64,29,29,0,0,1,6.87-5.87l.42.62a28.13,28.13,0,0,0-6.7,5.72,10.45,10.45,0,0,0-2.43,8,18.54,18.54,0,0,0,.53,2,9.31,9.31,0,0,1,.61,3.95,10,10,0,0,1-.57,2A6.06,6.06,0,0,0,11.45,35a6.19,6.19,0,0,0,.68,2,6.4,6.4,0,0,1,.74,2.35,6.39,6.39,0,0,1-.7,2.82,5.93,5.93,0,0,0-.65,2.44,5.89,5.89,0,0,0,.62,2.12,6.48,6.48,0,0,1,.69,2.38,7.1,7.1,0,0,1-.81,3c-.51,1.18-1,2.3-.52,3.32a4.1,4.1,0,0,0,.61.88,4.1,4.1,0,0,1,.82,1.31,4,4,0,0,1-.55,2.91,6,6,0,0,0-.62,1.74,5.55,5.55,0,0,0,.41,2.27,5.75,5.75,0,0,1,.42,2.6,2.28,2.28,0,0,1-1.9,2Z"/><path class="cls-3" d="M18.42,67.78a3.09,3.09,0,0,1-.89-.13A4.59,4.59,0,0,1,14.74,65,11.47,11.47,0,0,1,14,61.28a63.1,63.1,0,0,1-.17-7.9c0-1,.11-2.08.18-3.12l.08-1.2a10.8,10.8,0,0,0-.17-3.49,10.52,10.52,0,0,0-.41-1.19A6.64,6.64,0,0,1,12.88,42a7.14,7.14,0,0,1,.48-2.15,4.5,4.5,0,0,0,.38-2.34,4.53,4.53,0,0,0-.55-1.27,4.86,4.86,0,0,1-.65-1.51A5.08,5.08,0,0,1,13,32a8.17,8.17,0,0,0,.43-1.42,7.83,7.83,0,0,0-.58-3.78,17.15,17.15,0,0,1-.58-2.16,10.21,10.21,0,0,1,1.78-7.36,17.11,17.11,0,0,1,5.68-5l.38.64a16.41,16.41,0,0,0-5.44,4.81A9.41,9.41,0,0,0,13,24.46a15.48,15.48,0,0,0,.56,2.07,8.72,8.72,0,0,1,.6,4.13,8.94,8.94,0,0,1-.46,1.55,4.43,4.43,0,0,0-.43,2.34,4.62,4.62,0,0,0,.56,1.28,5.44,5.44,0,0,1,.64,1.48,5.13,5.13,0,0,1-.41,2.74A6.5,6.5,0,0,0,13.63,42a6.1,6.1,0,0,0,.55,2.15,12.69,12.69,0,0,1,.45,1.27,11.76,11.76,0,0,1,.19,3.73l-.08,1.2c-.07,1-.14,2.07-.18,3.1a63.39,63.39,0,0,0,.16,7.8,10.78,10.78,0,0,0,.71,3.46,3.9,3.9,0,0,0,2.31,2.27,2.07,2.07,0,0,0,2.17-.55,1.35,1.35,0,0,0,.19-1.15,1,1,0,0,0-.56-.66.84.84,0,0,0-.88.34.74.74,0,0,0-.17.55c.11.5-.41.88-.69.3a1.27,1.27,0,0,1,.27-1.31,1.57,1.57,0,0,1,1.73-.58,1.69,1.69,0,0,1,1,1.16,2.08,2.08,0,0,1-.31,1.8A2.62,2.62,0,0,1,18.42,67.78Z"/><path class="cls-4" d="M22.13,6.28A16.41,16.41,0,0,0,32.56,4.55C37.43,1.71,41.7-2.77,51,2.3c0,0,5.46,2.25,8.84,2.25V15.22S53,16.46,51.44,17.68a16,16,0,0,1-17.24.21A14.81,14.81,0,0,0,29,15.83a24.9,24.9,0,0,0-6.89-.51Z"/><path class="cls-1" d="M50.32,23.16c1.21,5.34,2.43,10.73,4.75,15.69.48,1,.86,2.21,1.82,2.8A1.46,1.46,0,0,0,59,41.16,2.91,2.91,0,0,0,59,38.83c-.82-2.36-1.75-3.09-2.81-6.71a35.82,35.82,0,0,1-1.72-8.41,28.9,28.9,0,0,0-.32-4.93c-.35-1.62-1.66-1.89-3.19-2.5A9,9,0,0,0,48,15.91a3.81,3.81,0,0,1-2.5-.8c-.77-.62-.37-3.94-.37-3.94l-2.36.13c0,1.49-.1,3.29-1.42,4-1,.53-2.29.12-3.37.5a4.91,4.91,0,0,0-2.29,2.36L33,22.73a4.24,4.24,0,0,1-1,1.28,1.45,1.45,0,0,1-1.55.18c-.61-.37-.69-1.2-.7-1.91-.05-2.67-.09-5.34-.14-8,0-1-.22-2.3-1.2-2.59a1.7,1.7,0,0,0-1.85,1.05A4.91,4.91,0,0,0,26.28,15c.2,3.3.4,6.61.61,9.91.09,1.61.41,3.53,1.89,4.16a3.81,3.81,0,0,0,3-.4,13.06,13.06,0,0,0,5.57-5.22,77.14,77.14,0,0,0,2.12,8,40.57,40.57,0,0,1,7.31.24Z"/><path class="cls-4" d="M35.54,42.64l14.64,0-2.76-9.4a4.52,4.52,0,0,0-.89-1.89,4.11,4.11,0,0,0-3.18-.94A7.33,7.33,0,0,1,40,30.09,53.27,53.27,0,0,0,35.54,42.64Z"/><path class="cls-5" d="M41.42,31.44c1.56.07,2.79-1.09,3.32-1.35a5.56,5.56,0,0,0,2.06-2.47c2.17-3.84,4.38-7,4.62-11.42L47.07,15a34.68,34.68,0,0,1-9.83,11.12,12,12,0,0,0,.64,3.12A2.7,2.7,0,0,0,39.31,31,4.09,4.09,0,0,0,41.42,31.44Z"/><path class="cls-4" d="M43,31.38c2.3-.59,3.46-2.81,4.63-4.84,1.93-3.37,3.95-6.56,4-10.43A9,9,0,0,1,49,15.29a30.06,30.06,0,0,1-10.8,15A4.47,4.47,0,0,0,43,31.38Z"/><path class="cls-5" d="M47.24,28.22A21.2,21.2,0,0,0,51.81,16l-1.18-.31a35,35,0,0,1-10,16.09s2.77,0,4.06-1A11.24,11.24,0,0,0,47.24,28.22Z"/><path class="cls-1" d="M47.79,7.86a4.34,4.34,0,1,1-8.64,0,4.53,4.53,0,0,1,4.32-4.72c1.56,0,3.79.09,4.55,1.45C48.42,5.3,47.79,7,47.79,7.86Z"/><path class="cls-6" d="M36.75,4a9.29,9.29,0,0,1,11.54-.28,7.34,7.34,0,0,1-5.7,3A7.35,7.35,0,0,1,36.75,4Z"/><path class="cls-6" d="M51.48,11.29a7.13,7.13,0,0,1-3.77,2.37,15.35,15.35,0,0,1-4.49.39,5.94,5.94,0,0,1-3.64-1c-1-.81-1.36-2.51-.41-3.37a4.66,4.66,0,0,0,6.1.13C47,8.4,46.88,6.53,46.46,4.34c.92-.33,1.69-.78,2.61-1.1a24.21,24.21,0,0,1,.08,4.92,4.12,4.12,0,0,0,.15,2.58C49.7,11.52,50.88,11.94,51.48,11.29Z"/><rect class="cls-5" x="19.24" y="5.38" width="4.27" height="10.73"/></g></g></svg>