<svg xmlns="http://www.w3.org/2000/svg" viewBox="0 0 49.85 66.67"><defs><style>.cls-1{fill:#eeac00;}.cls-2{fill:#24434a;}.cls-3{fill:#ffbb01;}.cls-4{fill:#e9a500;}.cls-5{fill:#e7a200;}.cls-6{fill:#889d9f;}.cls-7{fill:#b1bfc0;}.cls-8{fill:#e0e6e6;}.cls-9{fill:#fff;}</style></defs><title>vierge</title><g id="Calque_2" data-name="Calque 2"><g id="Layer_1" data-name="Layer 1"><path class="cls-1" d="M44.08,61.78c-2-1.22-4-1.31-5.94-2.68-.89-.64-1.46-2.14-2.85-2.59a1.2,1.2,0,0,0-1.39.36c-1.3,1.54-3.46,1.68-5.5,1.39-2.2-.3-4.28-1.21-6.47-1.64A15.56,15.56,0,0,0,9.74,59.41a10.72,10.72,0,0,1,6.43-3c2.38-.37,4.82-.35,7.2-.77a10.13,10.13,0,0,0,6.29-3.28,6.49,6.49,0,0,0,.41-.61H18.33a3.5,3.5,0,0,1-3.15,3.18c-1.3.22-4,.25-5,1.27s-2,3.61-1.55,4.94c-.28-.78,1,0,1.82.06s1.78.27,2.66.31a77.45,77.45,0,0,1,8.06.46,3.35,3.35,0,0,1,2.1,1.23,54.1,54.1,0,0,1,14.27,0,21.36,21.36,0,0,0,3.88.5A5.59,5.59,0,0,0,44,63.08.76.76,0,0,0,44.08,61.78Z"/><path class="cls-2" d="M42.57,39.32A7.12,7.12,0,0,0,44.87,43a3,3,0,0,0,4-.24c.81,2.38-.38,5.09-2.32,6.68a13.73,13.73,0,0,1-7,2.57,12,12,0,0,1-7-.71C29,49.49,27.55,45,26.83,41s-1.27-8.48-4.19-11.38c-1.14-1.13-2.66-2.08-3-3.64s.46-2.8,1-4.14a31.86,31.86,0,0,0,1.74-8.42,24.2,24.2,0,0,1,2.08-8.32C25.78,2.51,28.18.34,31,0a8.43,8.43,0,0,1,7.35,3.61,16.64,16.64,0,0,1,2.82,8C42.37,20.85,39.72,30.49,42.57,39.32Z"/><path class="cls-3" d="M31.49,12.62c-.8-.5-4,.68-4.41,1.53a5.84,5.84,0,0,0-.33,2.79,4.32,4.32,0,0,1-.57,2.73c-.89,1.19-2.65,1.23-4.12,1s-3.07-.59-4.36.15A5.76,5.76,0,0,0,15.55,24L10.9,35.8A18.51,18.51,0,0,1,8,20.78C8.5,19,9.21,17,8.38,15.33a3.44,3.44,0,0,0-4-1.62A3.57,3.57,0,0,0,2,17.42a9.37,9.37,0,0,0,1.24,3C5.7,25.22,5.41,30.84,5.94,36.16c.2,2.06.83,4.49,2.79,5.15,1.72.58,3.57-.57,4.74-2s2.69-3.7,3.45-3.22c1.34,2.51,1.64,4.79,2.44,7.67A5.09,5.09,0,0,1,19.64,46c-.28,1.71-2.1,2.63-3.68,3.34a74.65,74.65,0,0,0-13,7.56C1.35,58-.35,59.65.06,61.54A3.5,3.5,0,0,0,2.72,64a9.57,9.57,0,0,0,3.77,0c6.32-.92,12.62-2.5,18.19-5.61a10.07,10.07,0,0,0,4.5-4.15c1.32-2.81.2-6.09-.46-9.13a30.2,30.2,0,0,1,.14-13.54,54.33,54.33,0,0,0,1.47-7.67C30.8,19,30.24,17.78,31.49,12.62Z"/><path class="cls-4" d="M27.08,14.15a5.84,5.84,0,0,0-.33,2.79,4.32,4.32,0,0,1-.57,2.73,2.86,2.86,0,0,1-.46.46c1.89.23,4.21-.32,4.89-1.71a38.63,38.63,0,0,1,.88-5.8C30.69,12.12,27.51,13.3,27.08,14.15Z"/><path class="cls-1" d="M18.56,47.79A10.11,10.11,0,0,1,16,49.32a74.65,74.65,0,0,0-13,7.56C1.35,58-.35,59.65.06,61.54A3.5,3.5,0,0,0,2.72,64a9.57,9.57,0,0,0,3.77,0c6.32-.92,12.62-2.5,18.19-5.61a10.07,10.07,0,0,0,4.5-4.15c.93-2,.65-4.21.16-6.41Z"/><path class="cls-3" d="M49.51,64.35c-2-1.23-4-1.31-5.94-2.68-.89-.64-1.46-2.14-2.85-2.59a1.18,1.18,0,0,0-1.39.35c-1.3,1.55-3.46,1.68-5.5,1.4-2.2-.31-4.28-1.21-6.47-1.65A15.56,15.56,0,0,0,15.17,62a10.65,10.65,0,0,1,6.43-3c2.38-.38,4.82-.36,7.2-.78a10.12,10.12,0,0,0,6.29-3.27c1.5-1.9,1.76-4.89.1-6.64-1.44-1.51-3.95-1.85-5-3.65a5.84,5.84,0,0,1-.56-3c0-3.84,2.64-11.92,3-10.89.88,2.68,1.8,8.47,2.81,11.62,1.73,5.35,4,10.39,5.9,15.66a1.59,1.59,0,0,0,2.14,1A2.91,2.91,0,0,0,45,56.93c.25-1.53-.52-3-1.28-4.38-2.7-4.79-5.68-9.84-5.46-15.33.11-2.44.85-4.82.91-7.26s-.76-5.14-2.91-6.31c-.8-.44-1.73-.62-2.55-1a6.32,6.32,0,0,1-3.12-4L22.93,47.85A86.58,86.58,0,0,0,7.72,57.26c-2.07,1.6-4.32,4-2.72,6.6a4.57,4.57,0,0,0,2.94,2c11.52,2.64,23.47-2,35-.07a21.36,21.36,0,0,0,3.88.5,5.7,5.7,0,0,0,2.61-.62A.76.76,0,0,0,49.51,64.35Z"/><path class="cls-5" d="M17.85,36.11a3.1,3.1,0,0,1-2.74-1.65,4,4,0,0,1,.36-3.29c.28-.54.62-1,1-1.58a17.27,17.27,0,0,0,1-1.67,7.71,7.71,0,0,0,.42-1c.05-.43-.69-.55-.9,0-.1.25-.21.48-.3.66a16.94,16.94,0,0,1-1,1.59,18.41,18.41,0,0,0-1,1.66,4.86,4.86,0,0,0-.38,4.05A4,4,0,0,0,17.81,37H18a6.74,6.74,0,0,0,3.69-1.25L21.19,35A5.72,5.72,0,0,1,17.85,36.11Z"/><path class="cls-5" d="M25.71,38.31a5.16,5.16,0,0,1-4.44-2.52A5.24,5.24,0,0,1,21.85,30c.35-.42,1,.21.59.67a4.15,4.15,0,0,0,4.39,6.62,4.29,4.29,0,0,0,3-4.24,6.39,6.39,0,0,0-.09-.75c-.06-.4-.08-.8-.11-1.21,0-.59.87-.43.88.08a7.2,7.2,0,0,0,.1,1c0,.27.08.55.1.83a5.14,5.14,0,0,1-3.59,5.13A4.59,4.59,0,0,1,25.71,38.31Z"/><path class="cls-6" d="M4.76,14.85S1.7,22.39,1.77,24c0,.59.67,1.2,1.48,0,.94-1.41,3.23-8.67,3.23-8.67Z"/><path class="cls-7" d="M13.23,10.42c-1.35,4.15-4.79,6.75-7.69,5.81S1.38,11.16,2.73,7,7.52.27,10.42,1.21,14.57,6.28,13.23,10.42Z"/><path class="cls-8" d="M11.72,8.94,4.94,12.69a3.35,3.35,0,0,0,.47.52l6.12-3.49A7.38,7.38,0,0,0,11.72,8.94Z"/><path class="cls-8" d="M11.38,5.37l-7.26,4a6.31,6.31,0,0,0,.23,2.12l7.48-4.27A5.19,5.19,0,0,0,11.38,5.37Z"/><path class="cls-8" d="M9.61,3.7C7.67,3.07,5.37,4.81,4.47,7.58a7.31,7.31,0,0,0-.25,1L11,4.72A2.88,2.88,0,0,0,9.61,3.7Z"/><path class="cls-8" d="M6.05,13.62a1.34,1.34,0,0,0,.3.12c1.7.55,3.68-.72,4.75-2.91Z"/><path class="cls-9" d="M11,4.72,4.22,8.58a7.28,7.28,0,0,0-.1.8l7.26-4A5.88,5.88,0,0,0,11,4.72Z"/><path class="cls-9" d="M11.49,9.86a.74.74,0,0,1,0-.14L5.41,13.21a3.31,3.31,0,0,0,.64.41l5.05-2.79A7.55,7.55,0,0,0,11.49,9.86Z"/><path class="cls-9" d="M11.83,7.23,4.35,11.5a4.27,4.27,0,0,0,.59,1.19l6.78-3.75A6.68,6.68,0,0,0,11.83,7.23Z"/><path class="cls-5" d="M22.44,43.2c0,.61-.32,1.09-.72,1.09S21,43.81,21,43.2s.32-1.09.71-1.09S22.44,42.6,22.44,43.2Z"/><path class="cls-5" d="M16.81,34.61a.78.78,0,1,1-.26-1A.75.75,0,0,1,16.81,34.61Z"/><path class="cls-5" d="M25.32,36.07a.78.78,0,1,1-.26-1A.74.74,0,0,1,25.32,36.07Z"/><path class="cls-3" d="M22.75,17.64c1.56,1,3.61.41,5.24-.44a17.2,17.2,0,0,0,5.48-4.44c1.2-1.47,2.19-3.31,1.9-5.18A5.52,5.52,0,0,0,32.52,3.8a12.61,12.61,0,0,0-4.68-1.33,6,6,0,0,0-4.31.63A5.49,5.49,0,0,0,21.8,5.79,18.77,18.77,0,0,0,20.69,13C20.77,14.75,21.24,16.72,22.75,17.64Z"/><path class="cls-2" d="M19.46,5.65a8.23,8.23,0,0,1,9-4.69,13.86,13.86,0,0,1,2.43.81,9.61,9.61,0,0,1-5,4A9.57,9.57,0,0,1,19.46,5.65Z"/><path class="cls-2" d="M34.68,4.38a5.84,5.84,0,0,0-3-2.2,2.06,2.06,0,0,0-1.07-.07c-.91.23-1.3,1.3-1.39,2.24a9.43,9.43,0,0,0,5.14,9.2A7.57,7.57,0,0,0,34.68,4.38Z"/></g></g></svg>